<svg xmlns="http://www.w3.org/2000/svg" xmlns:xlink="http://www.w3.org/1999/xlink" width="500" zoomAndPan="magnify" viewBox="0 0 375 374.999991" height="500" preserveAspectRatio="xMidYMid meet" version="1.0"><defs><clipPath id="6bdbde2acc"><path d="M 86 31.519531 L 289 31.519531 L 289 343.519531 L 86 343.519531 Z M 86 31.519531 " clip-rule="nonzero"/></clipPath></defs><g clip-path="url(#6bdbde2acc)"><path fill="#ffffff" d="M 225.203125 125.074219 L 277.230469 125.074219 C 281.519531 125.074219 285.195312 127.332031 287.113281 131.167969 C 289.027344 135 288.664062 139.289062 286.109375 142.734375 L 148.621094 327.757812 C 147.523438 329.21875 146.316406 330.246094 144.671875 331.066406 L 122.765625 342.019531 C 119.523438 343.640625 116.03125 343.617188 112.792969 341.996094 L 103.984375 337.5 C 99.125 335.035156 96.796875 329.535156 98.4375 324.335938 L 130.84375 221.007812 L 97.800781 221.007812 C 94.308594 221.007812 91.34375 219.570312 89.152344 216.855469 C 86.984375 214.160156 86.230469 210.921875 86.984375 207.542969 L 121.714844 51.320312 C 122.46875 47.941406 124.476562 45.363281 127.558594 43.8125 L 149.488281 32.859375 C 151.128906 32.039062 152.703125 31.671875 154.53125 31.671875 L 264.269531 32.609375 C 268.421875 32.652344 271.9375 34.777344 273.921875 38.40625 C 275.882812 42.03125 275.726562 46.164062 273.511719 49.632812 L 225.203125 125.074219 " fill-opacity="1" fill-rule="evenodd"/></g><path fill="#000000" d="M 158.476562 42.785156 L 264.179688 43.675781 L 204.984375 136.140625 L 277.230469 136.140625 L 139.742188 321.164062 L 117.8125 332.117188 L 108.980469 327.644531 L 145.925781 209.941406 L 97.800781 209.941406 L 132.507812 53.714844 L 154.4375 42.742188 L 158.476562 42.785156 " fill-opacity="1" fill-rule="evenodd"/><path fill="#ffbb00" d="M 255.074219 48.605469 L 158.453125 47.785156 L 125.960938 193.941406 L 174.679688 193.941406 L 135.703125 318.171875 L 267.234375 141.160156 L 195.789062 141.160156 L 255.074219 48.605469 " fill-opacity="1" fill-rule="evenodd"/></svg>