<svg xmlns="http://www.w3.org/2000/svg" xmlns:xlink="http://www.w3.org/1999/xlink" width="2000" zoomAndPan="magnify" viewBox="0 0 1500 1499.999933" height="2000" preserveAspectRatio="xMidYMid meet" version="1.0"><defs><clipPath id="95aaa3f851"><path d="M 925.3125 940.3125 L 954.375 940.3125 L 954.375 969.375 L 925.3125 969.375 Z M 925.3125 940.3125 " clip-rule="nonzero"/></clipPath><clipPath id="cdfc5fc089"><path d="M 939.84375 940.3125 C 931.816406 940.3125 925.3125 946.816406 925.3125 954.84375 C 925.3125 962.867188 931.816406 969.375 939.84375 969.375 C 947.867188 969.375 954.375 962.867188 954.375 954.84375 C 954.375 946.816406 947.867188 940.3125 939.84375 940.3125 Z M 939.84375 940.3125 " clip-rule="nonzero"/></clipPath><clipPath id="1771c99ba0"><path d="M 0.3125 0.3125 L 29.375 0.3125 L 29.375 29.375 L 0.3125 29.375 Z M 0.3125 0.3125 " clip-rule="nonzero"/></clipPath><clipPath id="096fdc826b"><path d="M 14.84375 0.3125 C 6.816406 0.3125 0.3125 6.816406 0.3125 14.84375 C 0.3125 22.867188 6.816406 29.375 14.84375 29.375 C 22.867188 29.375 29.375 22.867188 29.375 14.84375 C 29.375 6.816406 22.867188 0.3125 14.84375 0.3125 Z M 14.84375 0.3125 " clip-rule="nonzero"/></clipPath><clipPath id="7c0c044bf4"><rect x="0" width="30" y="0" height="30"/></clipPath></defs><path fill="#ffde59" d="M 289.191406 1129.328125 C 296.761719 1133.824219 304.800781 1138.078125 312.839844 1142.21875 C 317 1150.023438 321.636719 1157.535156 326.75 1164.753906 C 331.859375 1171.972656 337.410156 1178.835938 343.394531 1185.347656 C 349.378906 1191.863281 355.75 1197.96875 362.507812 1203.671875 C 369.269531 1209.378906 376.363281 1214.628906 383.789062 1219.433594 C 469.164062 1277.726562 609.402344 1306.933594 750.351562 1306.933594 C 891.300781 1306.933594 1030.597656 1277.964844 1116.207031 1219.667969 C 1123.640625 1214.863281 1130.738281 1209.605469 1137.503906 1203.894531 C 1144.269531 1198.179688 1150.640625 1192.0625 1156.628906 1185.539062 C 1162.613281 1179.019531 1168.160156 1172.140625 1173.265625 1164.910156 C 1178.375 1157.679688 1183.003906 1150.15625 1187.15625 1142.335938 C 1195.550781 1138.199219 1203.710938 1133.941406 1210.804688 1129.449219 C 1270.875 1093.972656 1300.671875 1050.578125 1299.371094 1000.324219 C 1300.789062 950.304688 1270.992188 906.789062 1211.039062 871.316406 C 1191.628906 860.113281 1171.449219 850.535156 1150.5 842.582031 C 1132.644531 756.855469 1085.816406 715.46875 1051.761719 696.195312 C 968.992188 648.894531 850.742188 668.289062 762.652344 741.71875 L 762.652344 472.117188 L 789.257812 472.117188 C 827.09375 472.117188 855.710938 429.667969 867.535156 408.738281 L 1210.449219 427.183594 L 1212.339844 427.183594 C 1270.046875 427.183594 1300.316406 393.363281 1300.316406 359.902344 C 1300.316406 326.4375 1270.164062 292.5 1211.511719 292.5 L 868.597656 311.066406 C 856.773438 290.015625 828.160156 247.683594 790.320312 247.683594 L 763.714844 247.683594 L 763.714844 245.792969 C 763.734375 243.429688 763.585938 241.078125 763.269531 238.738281 C 762.949219 236.394531 762.46875 234.089844 761.816406 231.816406 C 761.167969 229.542969 760.363281 227.328125 759.394531 225.171875 C 758.429688 223.015625 757.316406 220.941406 756.050781 218.945312 C 754.785156 216.945312 753.386719 215.050781 751.851562 213.253906 C 750.316406 211.460938 748.660156 209.78125 746.882812 208.222656 C 745.105469 206.667969 743.226562 205.242188 741.246094 203.953125 C 739.265625 202.664062 737.203125 201.523438 735.058594 200.53125 C 732.914062 199.539062 730.710938 198.703125 728.449219 198.027344 C 726.183594 197.347656 723.882812 196.835938 721.546875 196.492188 C 719.207031 196.144531 716.859375 195.964844 714.496094 195.957031 C 712.132812 195.945312 709.78125 196.105469 707.441406 196.433594 C 705.101562 196.757812 702.796875 197.253906 700.527344 197.910156 C 698.257812 198.566406 696.046875 199.386719 693.894531 200.359375 C 691.742188 201.335938 689.667969 202.457031 687.675781 203.730469 C 685.6875 205.003906 683.796875 206.410156 682.007812 207.953125 C 680.90625 207 679.765625 206.097656 678.582031 205.246094 C 677.402344 204.394531 676.183594 203.597656 674.929688 202.855469 C 673.675781 202.113281 672.394531 201.425781 671.078125 200.796875 C 669.765625 200.167969 668.425781 199.601562 667.0625 199.09375 C 665.695312 198.582031 664.3125 198.136719 662.90625 197.75 C 661.503906 197.367188 660.082031 197.042969 658.648438 196.785156 C 657.214844 196.527344 655.773438 196.332031 654.324219 196.203125 C 652.871094 196.074219 651.417969 196.007812 649.960938 196.007812 C 648.503906 196.007812 647.050781 196.074219 645.601562 196.203125 C 644.148438 196.332031 642.707031 196.527344 641.273438 196.785156 C 639.839844 197.042969 638.421875 197.367188 637.015625 197.75 C 635.613281 198.136719 634.226562 198.582031 632.863281 199.09375 C 631.496094 199.601562 630.160156 200.167969 628.84375 200.796875 C 627.53125 201.425781 626.246094 202.113281 624.992188 202.855469 C 623.742188 203.597656 622.523438 204.394531 621.339844 205.246094 C 620.160156 206.097656 619.019531 207 617.917969 207.953125 C 615.691406 206.039062 613.3125 204.332031 610.78125 202.839844 C 608.25 201.351562 605.609375 200.09375 602.851562 199.074219 C 600.097656 198.054688 597.273438 197.289062 594.382812 196.773438 C 591.488281 196.257812 588.574219 196.003906 585.636719 196.011719 C 584.007812 196.015625 582.382812 196.097656 580.761719 196.261719 C 579.140625 196.425781 577.53125 196.667969 575.933594 196.988281 C 574.335938 197.308594 572.757812 197.707031 571.199219 198.179688 C 569.640625 198.65625 568.109375 199.207031 566.605469 199.832031 C 565.097656 200.457031 563.628906 201.15625 562.191406 201.925781 C 560.757812 202.695312 559.359375 203.53125 558.007812 204.4375 C 556.652344 205.34375 555.34375 206.3125 554.085938 207.347656 C 552.828125 208.382812 551.621094 209.476562 550.46875 210.625 C 549.316406 211.777344 548.222656 212.984375 547.191406 214.242188 C 546.15625 215.503906 545.1875 216.808594 544.28125 218.164062 C 543.375 219.519531 542.535156 220.914062 541.765625 222.351562 C 540.996094 223.785156 540.300781 225.257812 539.675781 226.761719 C 539.050781 228.265625 538.5 229.796875 538.023438 231.355469 C 537.550781 232.914062 537.152344 234.492188 536.832031 236.089844 C 536.507812 237.6875 536.269531 239.296875 536.105469 240.917969 C 535.941406 242.539062 535.859375 244.164062 535.855469 245.792969 L 535.855469 272.042969 L 514.6875 272.042969 C 514.105469 272.042969 513.527344 272.074219 512.949219 272.128906 C 512.371094 272.1875 511.796875 272.269531 511.226562 272.382812 C 510.65625 272.5 510.09375 272.640625 509.539062 272.808594 C 508.984375 272.976562 508.4375 273.171875 507.902344 273.394531 C 507.363281 273.617188 506.839844 273.863281 506.328125 274.136719 C 505.816406 274.414062 505.316406 274.710938 504.835938 275.03125 C 504.351562 275.355469 503.886719 275.703125 503.4375 276.070312 C 502.988281 276.4375 502.558594 276.828125 502.144531 277.238281 C 501.734375 277.648438 501.347656 278.078125 500.976562 278.527344 C 500.609375 278.976562 500.261719 279.445312 499.941406 279.925781 C 499.617188 280.410156 499.320312 280.90625 499.046875 281.417969 C 498.773438 281.933594 498.523438 282.457031 498.300781 282.992188 C 498.078125 283.53125 497.882812 284.078125 497.714844 284.632812 C 497.546875 285.1875 497.40625 285.75 497.292969 286.320312 C 497.179688 286.890625 497.09375 287.464844 497.035156 288.042969 C 496.980469 288.621094 496.953125 289.199219 496.953125 289.78125 C 496.953125 290.363281 496.980469 290.941406 497.035156 291.519531 C 497.09375 292.097656 497.179688 292.671875 497.292969 293.242188 C 497.40625 293.8125 497.546875 294.375 497.714844 294.929688 C 497.882812 295.484375 498.078125 296.03125 498.300781 296.570312 C 498.523438 297.105469 498.773438 297.628906 499.046875 298.140625 C 499.320312 298.65625 499.617188 299.152344 499.941406 299.636719 C 500.261719 300.117188 500.609375 300.585938 500.976562 301.03125 C 501.347656 301.480469 501.734375 301.910156 502.144531 302.324219 C 502.558594 302.734375 502.988281 303.125 503.4375 303.492188 C 503.886719 303.859375 504.351562 304.207031 504.835938 304.527344 C 505.316406 304.851562 505.816406 305.148438 506.328125 305.421875 C 506.839844 305.699219 507.363281 305.945312 507.902344 306.167969 C 508.4375 306.390625 508.984375 306.585938 509.539062 306.753906 C 510.09375 306.921875 510.65625 307.0625 511.226562 307.175781 C 511.796875 307.289062 512.371094 307.375 512.949219 307.433594 C 513.527344 307.488281 514.105469 307.519531 514.6875 307.519531 L 536.089844 307.519531 L 536.089844 342.164062 L 514.6875 342.164062 C 514.105469 342.164062 513.527344 342.191406 512.949219 342.25 C 512.371094 342.304688 511.796875 342.390625 511.226562 342.503906 C 510.65625 342.617188 510.09375 342.757812 509.539062 342.929688 C 508.984375 343.097656 508.4375 343.292969 507.902344 343.515625 C 507.363281 343.738281 506.839844 343.984375 506.328125 344.257812 C 505.816406 344.53125 505.316406 344.832031 504.835938 345.152344 C 504.351562 345.476562 503.886719 345.820312 503.4375 346.191406 C 502.988281 346.558594 502.558594 346.949219 502.144531 347.359375 C 501.734375 347.769531 501.347656 348.199219 500.976562 348.648438 C 500.609375 349.097656 500.261719 349.5625 499.941406 350.046875 C 499.617188 350.53125 499.320312 351.027344 499.046875 351.539062 C 498.773438 352.050781 498.523438 352.578125 498.300781 353.113281 C 498.078125 353.648438 497.882812 354.195312 497.714844 354.753906 C 497.546875 355.308594 497.40625 355.871094 497.292969 356.441406 C 497.179688 357.011719 497.09375 357.585938 497.035156 358.164062 C 496.980469 358.742188 496.953125 359.320312 496.953125 359.902344 C 496.953125 360.480469 496.980469 361.0625 497.035156 361.640625 C 497.09375 362.21875 497.179688 362.792969 497.292969 363.359375 C 497.40625 363.929688 497.546875 364.492188 497.714844 365.050781 C 497.882812 365.605469 498.078125 366.152344 498.300781 366.6875 C 498.523438 367.226562 498.773438 367.75 499.046875 368.261719 C 499.320312 368.773438 499.617188 369.273438 499.941406 369.753906 C 500.261719 370.238281 500.609375 370.703125 500.976562 371.152344 C 501.347656 371.601562 501.734375 372.03125 502.144531 372.441406 C 502.558594 372.855469 502.988281 373.242188 503.4375 373.613281 C 503.886719 373.980469 504.351562 374.324219 504.835938 374.648438 C 505.316406 374.972656 505.816406 375.269531 506.328125 375.542969 C 506.839844 375.816406 507.363281 376.066406 507.902344 376.289062 C 508.4375 376.511719 508.984375 376.707031 509.539062 376.875 C 510.09375 377.042969 510.65625 377.183594 511.226562 377.296875 C 511.796875 377.410156 512.371094 377.496094 512.949219 377.550781 C 513.527344 377.609375 514.105469 377.636719 514.6875 377.636719 L 536.089844 377.636719 L 536.089844 412.285156 L 514.6875 412.285156 C 514.105469 412.285156 513.527344 412.3125 512.949219 412.371094 C 512.371094 412.425781 511.796875 412.511719 511.226562 412.625 C 510.65625 412.738281 510.09375 412.878906 509.539062 413.046875 C 508.984375 413.214844 508.4375 413.410156 507.902344 413.632812 C 507.363281 413.855469 506.839844 414.105469 506.328125 414.378906 C 505.816406 414.652344 505.316406 414.949219 504.835938 415.273438 C 504.351562 415.597656 503.886719 415.941406 503.4375 416.308594 C 502.988281 416.679688 502.558594 417.066406 502.144531 417.480469 C 501.734375 417.890625 501.347656 418.320312 500.976562 418.769531 C 500.609375 419.21875 500.261719 419.683594 499.941406 420.167969 C 499.617188 420.648438 499.320312 421.148438 499.046875 421.660156 C 498.773438 422.171875 498.523438 422.695312 498.300781 423.234375 C 498.078125 423.769531 497.882812 424.316406 497.714844 424.871094 C 497.546875 425.429688 497.40625 425.992188 497.292969 426.5625 C 497.179688 427.128906 497.09375 427.703125 497.035156 428.28125 C 496.980469 428.859375 496.953125 429.441406 496.953125 430.019531 C 496.953125 430.601562 496.980469 431.179688 497.035156 431.757812 C 497.09375 432.335938 497.179688 432.910156 497.292969 433.480469 C 497.40625 434.050781 497.546875 434.613281 497.714844 435.167969 C 497.882812 435.726562 498.078125 436.273438 498.300781 436.808594 C 498.523438 437.34375 498.773438 437.871094 499.046875 438.382812 C 499.320312 438.894531 499.617188 439.390625 499.941406 439.875 C 500.261719 440.359375 500.609375 440.824219 500.976562 441.273438 C 501.347656 441.722656 501.734375 442.152344 502.144531 442.5625 C 502.558594 442.972656 502.988281 443.363281 503.4375 443.730469 C 503.886719 444.101562 504.351562 444.445312 504.835938 444.769531 C 505.316406 445.089844 505.816406 445.390625 506.328125 445.664062 C 506.839844 445.9375 507.363281 446.183594 507.902344 446.40625 C 508.4375 446.628906 508.984375 446.824219 509.539062 446.996094 C 510.09375 447.164062 510.65625 447.304688 511.226562 447.417969 C 511.796875 447.53125 512.371094 447.617188 512.949219 447.671875 C 513.527344 447.730469 514.105469 447.757812 514.6875 447.757812 L 536.089844 447.757812 L 536.089844 735.214844 C 525.5 739.886719 515.210938 745.152344 505.226562 751.011719 C 495.238281 756.867188 485.625 763.28125 476.378906 770.25 C 467.132812 777.214844 458.316406 784.691406 449.933594 792.671875 C 441.550781 800.65625 433.652344 809.09375 426.238281 817.988281 C 402.316406 823.679688 378.890625 830.972656 355.964844 839.863281 C 333.035156 848.75 310.820312 859.15625 289.3125 871.078125 C 229.003906 906.554688 199.207031 950.304688 200.746094 999.613281 C 199.207031 1050.222656 229.003906 1093.738281 289.191406 1129.328125 Z M 307.402344 901.824219 C 334.550781 886.339844 363.046875 873.960938 392.894531 864.695312 C 388.519531 872.144531 384.261719 879.710938 380.359375 887.632812 C 369.992188 891.925781 359.980469 896.933594 350.324219 902.652344 C 314.851562 923.816406 297.941406 949.359375 299.125 978.445312 C 297.941406 1007.417969 315.089844 1032.957031 350.207031 1054.125 C 358.230469 1058.84375 366.507812 1063.058594 375.039062 1066.777344 C 398.550781 1077.03125 422.652344 1085.632812 447.34375 1092.582031 C 472.035156 1099.53125 497.085938 1104.765625 522.492188 1108.28125 C 538.101562 1111.121094 553.828125 1113.484375 569.789062 1115.496094 L 591.429688 1118.214844 L 602.425781 1119.515625 L 607.628906 1119.515625 L 617.917969 1120.578125 L 649.132812 1123.179688 L 650.90625 1123.179688 L 662.734375 1124.007812 L 688.628906 1125.308594 C 690.394531 1125.882812 692.210938 1126.160156 694.066406 1126.136719 C 695.328125 1126.253906 696.589844 1126.253906 697.851562 1126.136719 L 726.347656 1126.964844 C 735.050781 1128.273438 743.800781 1128.824219 752.601562 1128.621094 C 769.980469 1128.621094 795.167969 1127.4375 831.589844 1124.953125 L 842.347656 1124.953125 C 954.800781 1118.6875 1049.042969 1101.304688 1123.300781 1070.914062 C 1126.242188 1069.652344 1128.648438 1067.722656 1130.515625 1065.121094 C 1137.609375 1061.8125 1144.347656 1058.261719 1150.378906 1054.714844 C 1185.855469 1033.433594 1202.882812 1007.417969 1201.582031 978.921875 C 1202.761719 952.078125 1187.984375 928.429688 1158.183594 907.972656 C 1158.183594 899.578125 1158.183594 891.417969 1156.882812 883.496094 C 1169.464844 889.011719 1181.683594 895.238281 1193.539062 902.179688 C 1241.785156 930.675781 1265.671875 963.667969 1264.488281 1000.085938 L 1264.488281 1001.152344 C 1265.671875 1037.6875 1241.667969 1070.5625 1193.539062 1099.175781 C 1002.808594 1211.746094 497.304688 1211.746094 306.691406 1099.175781 C 258.449219 1070.679688 234.5625 1037.6875 235.746094 1000.203125 C 235.152344 963.3125 259.039062 930.320312 307.402344 901.824219 Z M 557.730469 764.421875 C 618.390625 740.773438 680.351562 746.566406 723.273438 781.09375 C 714.667969 791.574219 706.785156 802.570312 699.625 814.085938 C 697.4375 812.476562 695.199219 810.9375 692.910156 809.472656 C 690.621094 808.007812 688.285156 806.617188 685.910156 805.300781 C 683.53125 803.988281 681.113281 802.75 678.652344 801.59375 C 676.195312 800.4375 673.703125 799.359375 671.171875 798.363281 C 668.644531 797.363281 666.089844 796.449219 663.5 795.621094 C 660.914062 794.789062 658.300781 794.042969 655.667969 793.378906 C 653.03125 792.714844 650.378906 792.140625 647.703125 791.648438 C 645.03125 791.160156 642.347656 790.753906 639.648438 790.4375 C 636.949219 790.121094 634.242188 789.890625 631.527344 789.75 C 628.816406 789.605469 626.097656 789.550781 623.382812 789.585938 C 620.664062 789.621094 617.953125 789.742188 615.242188 789.949219 C 612.53125 790.160156 609.832031 790.457031 607.140625 790.839844 C 604.453125 791.222656 601.777344 791.691406 599.117188 792.25 C 596.457031 792.808594 593.820312 793.449219 591.199219 794.175781 C 588.582031 794.902344 585.988281 795.714844 583.425781 796.609375 C 580.859375 797.503906 578.324219 798.480469 575.820312 799.539062 C 511.851562 823.191406 432.863281 900.40625 412.167969 1040.761719 C 398.902344 1035.359375 386.015625 1029.171875 373.503906 1022.199219 C 397.859375 876.636719 483.945312 793.15625 557.730469 764.421875 Z M 571.566406 245.792969 C 571.566406 244.855469 571.65625 243.921875 571.839844 243 C 572.023438 242.082031 572.292969 241.1875 572.652344 240.316406 C 573.011719 239.449219 573.453125 238.625 573.976562 237.84375 C 574.496094 237.0625 575.089844 236.339844 575.753906 235.675781 C 576.417969 235.011719 577.140625 234.417969 577.921875 233.898438 C 578.703125 233.375 579.527344 232.933594 580.398438 232.574219 C 581.265625 232.214844 582.160156 231.945312 583.082031 231.761719 C 584.003906 231.578125 584.933594 231.484375 585.871094 231.484375 C 586.8125 231.484375 587.742188 231.578125 588.664062 231.761719 C 589.585938 231.945312 590.480469 232.214844 591.347656 232.574219 C 592.214844 232.933594 593.039062 233.375 593.820312 233.898438 C 594.601562 234.417969 595.324219 235.011719 595.988281 235.675781 C 596.652344 236.339844 597.246094 237.0625 597.769531 237.84375 C 598.289062 238.625 598.730469 239.449219 599.089844 240.316406 C 599.449219 241.1875 599.722656 242.082031 599.90625 243 C 600.089844 243.921875 600.179688 244.855469 600.179688 245.792969 L 600.179688 716.53125 C 590.527344 717.945312 580.988281 719.917969 571.566406 722.445312 Z M 728.242188 245.792969 L 728.242188 741.246094 C 719.167969 735.660156 709.667969 730.929688 699.742188 727.054688 L 699.742188 245.792969 C 699.699219 245.300781 699.679688 244.804688 699.6875 244.308594 C 699.691406 243.8125 699.722656 243.320312 699.78125 242.828125 C 699.839844 242.335938 699.921875 241.847656 700.03125 241.363281 C 700.140625 240.878906 700.273438 240.402344 700.429688 239.933594 C 700.589844 239.460938 700.769531 239 700.976562 238.550781 C 701.183594 238.101562 701.410156 237.660156 701.664062 237.234375 C 701.914062 236.804688 702.1875 236.394531 702.484375 235.996094 C 702.777344 235.59375 703.089844 235.214844 703.425781 234.847656 C 703.761719 234.480469 704.113281 234.132812 704.484375 233.804688 C 704.851562 233.472656 705.238281 233.164062 705.640625 232.875 C 706.042969 232.585938 706.460938 232.316406 706.890625 232.070312 C 707.320312 231.824219 707.765625 231.601562 708.21875 231.402344 C 708.671875 231.203125 709.132812 231.027344 709.605469 230.875 C 710.078125 230.722656 710.554688 230.597656 711.042969 230.492188 C 711.527344 230.390625 712.015625 230.3125 712.507812 230.261719 C 713.003906 230.210938 713.496094 230.1875 713.992188 230.1875 C 714.488281 230.1875 714.980469 230.210938 715.476562 230.261719 C 715.96875 230.3125 716.457031 230.390625 716.941406 230.492188 C 717.429688 230.597656 717.90625 230.722656 718.378906 230.875 C 718.851562 231.027344 719.3125 231.203125 719.765625 231.402344 C 720.21875 231.601562 720.664062 231.824219 721.09375 232.070312 C 721.523438 232.316406 721.941406 232.585938 722.34375 232.875 C 722.746094 233.164062 723.132812 233.472656 723.5 233.804688 C 723.871094 234.132812 724.222656 234.480469 724.558594 234.847656 C 724.894531 235.214844 725.207031 235.59375 725.503906 235.996094 C 725.796875 236.394531 726.070312 236.804688 726.320312 237.234375 C 726.574219 237.660156 726.800781 238.101562 727.007812 238.550781 C 727.214844 239 727.394531 239.460938 727.554688 239.933594 C 727.710938 240.402344 727.84375 240.878906 727.953125 241.363281 C 728.0625 241.847656 728.144531 242.335938 728.203125 242.828125 C 728.261719 243.320312 728.292969 243.8125 728.300781 244.308594 C 728.304688 244.804688 728.285156 245.300781 728.242188 245.792969 Z M 859.140625 347.011719 L 1212.339844 327.972656 C 1247.816406 327.972656 1264.84375 344.527344 1264.84375 359.902344 C 1264.84375 375.273438 1248.523438 391.589844 1212.8125 391.710938 L 859.140625 372.671875 C 858.269531 372.640625 857.398438 372.671875 856.53125 372.761719 C 855.667969 372.855469 854.808594 373.007812 853.964844 373.222656 C 853.121094 373.4375 852.296875 373.710938 851.488281 374.042969 C 850.683594 374.375 849.90625 374.761719 849.15625 375.203125 C 848.402344 375.648438 847.6875 376.140625 847.007812 376.6875 C 846.328125 377.230469 845.691406 377.820312 845.09375 378.457031 C 844.5 379.09375 843.949219 379.769531 843.449219 380.484375 C 842.953125 381.199219 842.503906 381.945312 842.113281 382.722656 C 833.953125 400.339844 810.304688 436.644531 790.320312 436.644531 L 763.714844 436.644531 L 763.714844 282.921875 L 790.320312 282.921875 C 810.066406 282.921875 833.714844 319.105469 842.113281 336.726562 C 842.480469 337.523438 842.90625 338.292969 843.390625 339.03125 C 843.875 339.769531 844.410156 340.464844 845 341.121094 C 845.585938 341.78125 846.21875 342.390625 846.898438 342.953125 C 847.578125 343.515625 848.292969 344.023438 849.046875 344.480469 C 849.800781 344.9375 850.585938 345.332031 851.402344 345.671875 C 852.214844 346.011719 853.050781 346.289062 853.902344 346.503906 C 854.757812 346.71875 855.625 346.867188 856.503906 346.953125 C 857.378906 347.039062 858.257812 347.058594 859.140625 347.011719 Z M 1034.972656 727.054688 C 1110.175781 769.742188 1138.554688 869.898438 1114.667969 1009.308594 C 1111.714844 1019.003906 1108.167969 1028.703125 1104.265625 1038.160156 C 1084.613281 1046.753906 1064.390625 1053.691406 1043.605469 1058.972656 C 1054.878906 1038.789062 1063.824219 1017.625 1070.445312 995.476562 C 1091.375 924.527344 1086.054688 850.386719 1056.136719 797.886719 C 1053.964844 793.777344 1051.582031 789.792969 1049 785.929688 C 1046.414062 782.070312 1043.636719 778.351562 1040.667969 774.773438 C 1037.699219 771.199219 1034.554688 767.785156 1031.230469 764.535156 C 1027.910156 761.285156 1024.429688 758.214844 1020.792969 755.320312 C 1017.15625 752.429688 1013.378906 749.730469 1009.460938 747.230469 C 1005.546875 744.726562 1001.511719 742.433594 997.359375 740.347656 C 993.207031 738.261719 988.957031 736.394531 984.609375 734.746094 C 980.265625 733.097656 975.847656 731.675781 971.355469 730.484375 C 900.40625 716.414062 831.46875 752.003906 782.988281 828.15625 C 781.925781 829.8125 780.980469 831.585938 780.03125 833.242188 C 762.421875 831.75 744.921875 832.578125 727.53125 835.722656 C 734.996094 823.78125 743.328125 812.476562 752.527344 801.8125 C 761.722656 791.148438 771.679688 781.246094 782.398438 772.105469 C 860.320312 705.296875 964.023438 686.734375 1034.972656 727.054688 Z M 587.765625 833.476562 C 623.949219 820.117188 657.882812 824.726562 681.535156 846.011719 C 680.46875 848.140625 679.640625 850.269531 678.695312 852.277344 C 662.546875 860.035156 647.765625 869.847656 634.351562 881.722656 C 630.617188 880.730469 626.816406 880.109375 622.957031 879.859375 C 619.097656 879.613281 615.253906 879.742188 611.417969 880.25 C 607.585938 880.757812 603.835938 881.632812 600.175781 882.875 C 596.511719 884.117188 593.007812 885.703125 589.65625 887.632812 C 541.410156 911.285156 492.695312 986.132812 487.847656 1065.003906 C 473.300781 1061.457031 459.113281 1057.789062 445.632812 1053.179688 C 462.894531 923.226562 532.1875 853.578125 588.117188 832.886719 Z M 940.375 762.765625 C 948.09375 762.78125 955.738281 763.527344 963.316406 765.011719 C 966.605469 765.949219 969.835938 767.046875 973.015625 768.3125 C 976.191406 769.574219 979.296875 771 982.328125 772.578125 C 985.363281 774.160156 988.308594 775.886719 991.164062 777.769531 C 994.019531 779.648438 996.773438 781.667969 999.425781 783.828125 C 1002.078125 785.984375 1004.613281 788.273438 1007.03125 790.691406 C 1009.449219 793.109375 1011.742188 795.644531 1013.902344 798.292969 C 1016.0625 800.945312 1018.082031 803.699219 1019.964844 806.554688 C 1021.84375 809.410156 1023.574219 812.355469 1025.15625 815.386719 C 1050.34375 859.726562 1054.484375 923.34375 1036.15625 985.542969 C 1030.148438 1006.183594 1021.914062 1025.890625 1011.441406 1044.664062 C 1003.289062 1023.621094 993.515625 1003.363281 982.117188 983.886719 C 984.125 977.738281 986.136719 972.0625 987.792969 964.96875 C 1006.59375 898.632812 1001.273438 844.121094 973.128906 815.503906 C 971.367188 813.636719 969.484375 811.894531 967.488281 810.277344 C 965.492188 808.660156 963.394531 807.183594 961.199219 805.851562 C 959.003906 804.515625 956.730469 803.335938 954.375 802.308594 C 952.023438 801.277344 949.609375 800.410156 947.136719 799.707031 C 944.667969 799.003906 942.160156 798.464844 939.617188 798.097656 C 937.074219 797.730469 934.519531 797.535156 931.949219 797.511719 C 929.382812 797.488281 926.824219 797.636719 924.273438 797.957031 C 921.726562 798.273438 919.207031 798.765625 916.726562 799.421875 C 893.078125 805.6875 871.554688 824.726562 854.410156 853.933594 C 842.613281 848.296875 830.394531 843.800781 817.753906 840.453125 C 837.5 811.363281 879.949219 762.765625 940.375 762.765625 Z M 946.40625 992.398438 L 947.46875 994.175781 C 962.328125 1018.378906 974.347656 1043.921875 983.535156 1070.796875 C 970.527344 1073.28125 957.164062 1075.527344 943.566406 1077.65625 C 907.03125 959.410156 810.660156 898.511719 737.9375 909.746094 C 711.566406 913.886719 628.796875 938.835938 630.570312 1085.816406 C 616.972656 1084.75 603.492188 1083.566406 590.367188 1082.148438 C 589.300781 956.925781 654.691406 892.957031 717.953125 874.390625 C 802.261719 850.03125 891.777344 896.382812 946.761719 992.398438 Z M 743.496094 945.101562 C 800.253906 936.113281 876.167969 986.132812 908.09375 1082.621094 C 894.023438 1084.042969 879.714844 1085.34375 865.171875 1086.40625 C 856.183594 1029.648438 822.128906 989.917969 791.265625 976.554688 C 788.890625 975.351562 786.441406 974.316406 783.921875 973.457031 C 781.402344 972.601562 778.832031 971.921875 776.214844 971.429688 C 773.597656 970.933594 770.957031 970.625 768.296875 970.503906 C 765.636719 970.382812 762.980469 970.449219 760.332031 970.707031 C 757.679688 970.960938 755.058594 971.402344 752.46875 972.027344 C 749.882812 972.65625 747.351562 973.460938 744.875 974.445312 C 742.402344 975.429688 740.007812 976.585938 737.699219 977.910156 C 735.386719 979.234375 733.179688 980.710938 731.078125 982.347656 C 714.644531 995.710938 698.441406 1025.15625 707.429688 1089.953125 C 693.476562 1089.953125 679.640625 1089.007812 666.042969 1088.296875 C 665.097656 1006 693.359375 952.667969 743.847656 944.867188 Z M 753.074219 1009.78125 C 753.960938 1009.246094 754.882812 1008.777344 755.835938 1008.367188 C 756.785156 1007.957031 757.761719 1007.613281 758.761719 1007.335938 C 759.761719 1007.058594 760.773438 1006.851562 761.800781 1006.710938 C 762.828125 1006.570312 763.859375 1006.5 764.898438 1006.5 C 765.933594 1006.5 766.964844 1006.570312 767.992188 1006.710938 C 769.019531 1006.851562 770.035156 1007.058594 771.035156 1007.335938 C 772.03125 1007.613281 773.007812 1007.957031 773.960938 1008.367188 C 774.914062 1008.777344 775.832031 1009.246094 776.722656 1009.78125 C 798.597656 1019.359375 821.890625 1048.804688 829.578125 1089.007812 C 819.882812 1089.007812 810.066406 1089.953125 800.253906 1090.191406 L 791.738281 1051.878906 C 791.652344 1051.277344 791.535156 1050.679688 791.386719 1050.089844 C 791.238281 1049.5 791.058594 1048.917969 790.851562 1048.34375 C 790.640625 1047.773438 790.40625 1047.210938 790.136719 1046.664062 C 789.871094 1046.117188 789.578125 1045.585938 789.257812 1045.066406 C 788.9375 1044.550781 788.589844 1044.050781 788.21875 1043.570312 C 787.847656 1043.085938 787.449219 1042.625 787.03125 1042.183594 C 786.609375 1041.742188 786.167969 1041.324219 785.707031 1040.929688 C 785.242188 1040.535156 784.761719 1040.164062 784.257812 1039.820312 C 783.757812 1039.472656 783.242188 1039.152344 782.707031 1038.859375 C 782.171875 1038.570312 781.625 1038.304688 781.0625 1038.066406 C 780.503906 1037.832031 779.929688 1037.625 779.347656 1037.449219 C 778.765625 1037.269531 778.175781 1037.125 777.578125 1037.007812 C 776.980469 1036.890625 776.378906 1036.804688 775.773438 1036.75 C 775.167969 1036.695312 774.558594 1036.671875 773.949219 1036.679688 C 773.339844 1036.6875 772.734375 1036.730469 772.128906 1036.800781 C 771.523438 1036.871094 770.925781 1036.972656 770.332031 1037.101562 C 769.738281 1037.234375 769.152344 1037.398438 768.574219 1037.589844 C 767.996094 1037.785156 767.429688 1038.003906 766.875 1038.257812 C 766.320312 1038.507812 765.78125 1038.785156 765.253906 1039.09375 C 764.726562 1039.398438 764.21875 1039.730469 763.726562 1040.089844 C 763.234375 1040.449219 762.761719 1040.832031 762.3125 1041.242188 C 761.859375 1041.648438 761.429688 1042.078125 761.019531 1042.53125 C 760.613281 1042.980469 760.226562 1043.453125 759.867188 1043.945312 C 759.507812 1044.4375 759.175781 1044.945312 758.871094 1045.46875 C 758.5625 1045.996094 758.28125 1046.535156 758.03125 1047.089844 C 757.78125 1047.644531 757.558594 1048.210938 757.363281 1048.789062 C 757.171875 1049.367188 757.007812 1049.953125 756.875 1050.546875 C 756.742188 1051.140625 756.640625 1051.738281 756.570312 1052.34375 C 756.5 1052.949219 756.457031 1053.554688 756.449219 1054.164062 C 756.441406 1054.773438 756.464844 1055.382812 756.515625 1055.988281 C 756.570312 1056.59375 756.65625 1057.195312 756.773438 1057.792969 C 756.886719 1058.390625 757.035156 1058.980469 757.210938 1059.5625 L 764.070312 1090.898438 L 743.847656 1090.898438 C 736.164062 1043.363281 743.375 1017.824219 753.425781 1009.546875 Z M 555.246094 1077.539062 C 544.25 1075.765625 533.488281 1073.988281 523.203125 1072.097656 C 524.976562 1003.988281 565.296875 944.867188 598.523438 923.109375 C 594.933594 928.855469 591.550781 934.722656 588.378906 940.710938 C 585.207031 946.699219 582.253906 952.792969 579.515625 958.992188 C 576.777344 965.191406 574.261719 971.480469 571.972656 977.859375 C 569.683594 984.238281 567.625 990.691406 565.796875 997.214844 C 563.96875 1003.742188 562.375 1010.324219 561.015625 1016.960938 C 559.65625 1023.601562 558.535156 1030.28125 557.652344 1037 C 556.769531 1043.71875 556.128906 1050.460938 555.726562 1057.226562 C 555.324219 1063.992188 555.164062 1070.761719 555.246094 1077.539062 Z M 925.59375 833.714844 C 927.761719 833.117188 929.96875 832.800781 932.214844 832.769531 C 933.71875 832.777344 935.203125 832.945312 936.671875 833.261719 C 938.140625 833.578125 939.5625 834.042969 940.9375 834.652344 C 942.308594 835.261719 943.605469 836.007812 944.824219 836.882812 C 946.046875 837.761719 947.164062 838.753906 948.179688 839.863281 C 961.660156 853.578125 970.171875 887.160156 956.929688 942.972656 C 949.246094 932.394531 940.96875 922.304688 932.097656 912.703125 L 944.867188 882.902344 C 945.097656 882.371094 945.296875 881.824219 945.472656 881.273438 C 945.644531 880.71875 945.792969 880.15625 945.910156 879.589844 C 946.03125 879.019531 946.121094 878.445312 946.183594 877.871094 C 946.246094 877.292969 946.28125 876.710938 946.289062 876.132812 C 946.292969 875.550781 946.269531 874.972656 946.21875 874.394531 C 946.167969 873.816406 946.089844 873.238281 945.984375 872.667969 C 945.875 872.097656 945.742188 871.535156 945.578125 870.976562 C 945.414062 870.417969 945.226562 869.871094 945.007812 869.332031 C 944.792969 868.792969 944.550781 868.265625 944.28125 867.75 C 944.015625 867.234375 943.722656 866.734375 943.402344 866.25 C 943.085938 865.761719 942.746094 865.292969 942.382812 864.839844 C 942.019531 864.386719 941.632812 863.953125 941.226562 863.539062 C 940.820312 863.121094 940.398438 862.726562 939.953125 862.355469 C 939.507812 861.980469 939.046875 861.628906 938.566406 861.300781 C 938.085938 860.972656 937.59375 860.671875 937.082031 860.390625 C 936.574219 860.113281 936.050781 859.859375 935.519531 859.628906 C 934.984375 859.402344 934.441406 859.199219 933.886719 859.023438 C 933.332031 858.847656 932.773438 858.703125 932.203125 858.582031 C 931.636719 858.460938 931.0625 858.371094 930.484375 858.308594 C 929.90625 858.242188 929.328125 858.207031 928.746094 858.203125 C 928.167969 858.195312 927.585938 858.214844 927.007812 858.265625 C 926.429688 858.316406 925.855469 858.394531 925.285156 858.5 C 924.714844 858.609375 924.148438 858.742188 923.589844 858.90625 C 923.035156 859.066406 922.484375 859.253906 921.945312 859.472656 C 921.40625 859.6875 920.878906 859.929688 920.363281 860.195312 C 919.847656 860.464844 919.347656 860.757812 918.859375 861.074219 C 918.375 861.390625 917.902344 861.730469 917.449219 862.09375 C 916.996094 862.457031 916.5625 862.839844 916.148438 863.246094 C 915.730469 863.652344 915.335938 864.078125 914.960938 864.519531 C 914.589844 864.964844 914.238281 865.425781 913.910156 865.90625 C 913.582031 866.386719 913.277344 866.878906 912.996094 867.386719 C 912.714844 867.894531 912.460938 868.417969 912.230469 868.949219 L 904.902344 886.6875 C 898.398438 881.25 891.777344 876.402344 885.035156 871.789062 C 898.398438 848.730469 913.414062 836.90625 925.59375 833.714844 Z M 342.285156 996.539062 C 336.253906 984.714844 337.082031 968.277344 356.121094 945.574219 C 350.570312 962.308594 345.960938 979.296875 342.285156 996.539062 Z M 1156.882812 962.011719 C 1157.453125 962.882812 1157.984375 963.773438 1158.472656 964.691406 C 1158.964844 965.609375 1159.414062 966.546875 1159.820312 967.503906 C 1160.230469 968.457031 1160.59375 969.429688 1160.917969 970.421875 C 1161.242188 971.410156 1161.519531 972.410156 1161.753906 973.421875 C 1161.988281 974.4375 1162.179688 975.457031 1162.324219 976.488281 C 1162.46875 977.515625 1162.566406 978.550781 1162.621094 979.589844 C 1162.675781 980.628906 1162.683594 981.667969 1162.644531 982.707031 C 1162.605469 983.746094 1162.523438 984.78125 1162.394531 985.8125 C 1162.265625 986.847656 1162.09375 987.871094 1161.875 988.886719 C 1161.65625 989.902344 1161.394531 990.910156 1161.085938 991.902344 C 1160.777344 992.898438 1160.429688 993.875 1160.035156 994.835938 C 1159.640625 995.800781 1159.207031 996.742188 1158.730469 997.667969 C 1158.253906 998.59375 1157.738281 999.496094 1157.183594 1000.375 C 1156.628906 1001.253906 1156.035156 1002.105469 1155.402344 1002.933594 C 1154.773438 1003.761719 1154.109375 1004.558594 1153.40625 1005.328125 C 1152.707031 1006.09375 1151.972656 1006.832031 1151.207031 1007.535156 C 1153.21875 991.691406 1155.703125 976.4375 1156.882812 962.011719 Z M 664.269531 245.792969 L 664.269531 717.242188 C 654.789062 715.730469 645.25 714.824219 635.652344 714.523438 L 635.652344 245.792969 C 635.65625 244.855469 635.75 243.925781 635.933594 243.007812 C 636.117188 242.085938 636.390625 241.191406 636.75 240.328125 C 637.113281 239.460938 637.554688 238.636719 638.074219 237.859375 C 638.597656 237.078125 639.191406 236.355469 639.855469 235.695312 C 640.519531 235.03125 641.242188 234.441406 642.023438 233.917969 C 642.800781 233.398438 643.625 232.957031 644.492188 232.601562 C 645.359375 232.242188 646.253906 231.96875 647.175781 231.789062 C 648.09375 231.605469 649.023438 231.511719 649.960938 231.511719 C 650.898438 231.511719 651.828125 231.605469 652.75 231.789062 C 653.671875 231.96875 654.5625 232.242188 655.429688 232.601562 C 656.296875 232.957031 657.121094 233.398438 657.902344 233.917969 C 658.683594 234.441406 659.40625 235.03125 660.070312 235.695312 C 660.734375 236.355469 661.328125 237.078125 661.847656 237.859375 C 662.371094 238.636719 662.8125 239.460938 663.171875 240.328125 C 663.53125 241.191406 663.804688 242.085938 663.988281 243.007812 C 664.175781 243.925781 664.269531 244.855469 664.269531 245.792969 Z M 404.128906 1190.109375 C 394.285156 1183.46875 385.023438 1176.097656 376.339844 1167.996094 C 479.214844 1202.167969 614.605469 1218.84375 751.179688 1218.84375 C 887.753906 1218.84375 1023.148438 1201.695312 1124.71875 1167.640625 C 1116.023438 1175.808594 1106.722656 1183.21875 1096.816406 1189.871094 C 937.535156 1298.183594 562.578125 1298.183594 404.363281 1190.109375 Z M 404.128906 1190.109375 " fill-opacity="1" fill-rule="nonzero"/><g clip-path="url(#95aaa3f851)"><g clip-path="url(#cdfc5fc089)"><g transform="matrix(1, 0, 0, 1, 925, 940)"><g clip-path="url(#7c0c044bf4)"><g clip-path="url(#1771c99ba0)"><g clip-path="url(#096fdc826b)"><path fill="#ffde59" d="M 0.3125 0.3125 L 29.375 0.3125 L 29.375 29.375 L 0.3125 29.375 Z M 0.3125 0.3125 " fill-opacity="1" fill-rule="nonzero"/></g></g></g></g></g></g></svg>